<svg xmlns="http://www.w3.org/2000/svg" xmlns:xlink="http://www.w3.org/1999/xlink" viewBox="0,0,256,256" width="250px" height="250px" fill-rule="nonzero"><g fill="none" fill-rule="nonzero" stroke="none" stroke-width="none" stroke-linecap="butt" stroke-linejoin="none" stroke-miterlimit="10" stroke-dasharray="" stroke-dashoffset="0" font-family="none" font-weight="none" font-size="none" text-anchor="none" style="mix-blend-mode: normal"><path transform="scale(5.12,5.12)" d="M36.92969,18.56445c-1.388,-0.667 -2.80456,-1.21895 -4.22656,-1.62695c-1.014,-6.2 -4.58412,-10.9375 -8.70312,-10.9375c-4.878,0 -9,6.63333 -9,14.48633c0,4.12514 1.14356,7.9009 2.93164,10.56445c0.18776,-0.03237 0.37784,-0.04935 0.56836,-0.05078c1.933,0 3.5,1.567 3.5,3.5c0,1.933 -1.567,3.5 -3.5,3.5c-1.04017,-0.00042 -2.02626,-0.46347 -2.69089,-1.2636c-0.66464,-0.80013 -0.93895,-1.85443 -0.74856,-2.87702c-2.49561,-3.36473 -4.06055,-8.10686 -4.06055,-13.37305c0,-10.194 5.832,-18.48633 13,-18.48633c6.712,0 12.25169,7.27045 12.92969,16.56445zM25.03516,18.09375c4.15039,-0.33994 8.87229,0.83812 13.13477,3.39453c8.958,5.37 13.16798,14.62913 9.58398,21.07813c-1.343,2.416 -3.64339,4.11883 -6.65039,4.92383c-1.27,0.34 -2.63102,0.50586 -4.04102,0.50586c-3.252,0 -6.77161,-0.89127 -10.09961,-2.57227c1.283,-0.858 2.45834,-1.79116 3.52734,-2.78516c3.369,1.355 6.78912,1.73428 9.57813,0.98828c1.937,-0.518 3.38545,-1.55791 4.18945,-3.00391c2.446,-4.4 -1.28453,-11.59208 -8.14453,-15.70508c-3.46719,-2.07785 -7.2229,-3.08048 -10.47266,-2.87695c-0.58769,1.19843 -1.80585,1.95827 -3.14062,1.95898c-1.933,0 -3.5,-1.567 -3.5,-3.5c0,-1.933 1.567,-3.5 3.5,-3.5c0.95923,0.00178 1.87569,0.39717 2.53516,1.09375zM10.0293,27.85547c-4.283,4.068 -6.21916,9.28758 -4.28516,12.76758c0.804,1.446 2.2515,2.48591 4.1875,3.00391c3.668,0.983 8.42275,0.03108 12.71875,-2.54492c3.56306,-2.13664 6.25724,-5.10334 7.70117,-8.07812c-0.21948,-0.45728 -0.35156,-0.96368 -0.35156,-1.50391c0,-1.93 1.57,-3.5 3.5,-3.5c1.93,0 3.5,1.57 3.5,3.5c0,1.80104 -1.37195,3.27214 -3.12305,3.46289c-1.7812,3.58083 -4.92209,7.00407 -9.16992,9.55078c-3.797,2.276 -7.96758,3.48242 -11.76758,3.48242c-1.412,0 -2.77002,-0.16586 -4.04102,-0.50586c-3.007,-0.805 -5.30739,-2.50783 -6.65039,-4.92383c-3.206,-5.767 -0.16889,-13.77119 6.91211,-19.24219c0.164,1.575 0.45814,3.09125 0.86914,4.53125z" id="strokeMainSVG" fill="#dddddd" stroke="#dddddd" stroke-width="2" stroke-linejoin="round"></path><g transform="scale(5.12,5.12)" fill="#44d173" stroke="none" stroke-width="1" stroke-linejoin="miter"><path d="M24,2c-7.168,0 -13,8.29233 -13,18.48633c0,5.26619 1.56494,10.00832 4.06055,13.37305c-0.19039,1.02259 0.08393,2.07689 0.74856,2.87702c0.66464,0.80013 1.65072,1.26318 2.69089,1.2636c1.933,0 3.5,-1.567 3.5,-3.5c0,-1.933 -1.567,-3.5 -3.5,-3.5c-0.19052,0.00143 -0.3806,0.01841 -0.56836,0.05078c-1.78808,-2.66355 -2.93164,-6.43932 -2.93164,-10.56445c0,-7.853 4.122,-14.48633 9,-14.48633c4.119,0 7.68913,4.7375 8.70313,10.9375c1.422,0.408 2.83856,0.95995 4.22656,1.62695c-0.678,-9.294 -6.21769,-16.56445 -12.92969,-16.56445zM22.5,17c-1.933,0 -3.5,1.567 -3.5,3.5c0,1.933 1.567,3.5 3.5,3.5c1.33477,-0.00071 2.55294,-0.76055 3.14063,-1.95898c3.24975,-0.20353 7.00547,0.7991 10.47266,2.87695c6.86,4.113 10.59053,11.30508 8.14453,15.70508c-0.804,1.446 -2.25245,2.48591 -4.18945,3.00391c-2.789,0.746 -6.20912,0.36672 -9.57812,-0.98828c-1.069,0.994 -2.24434,1.92716 -3.52734,2.78516c3.328,1.681 6.84761,2.57227 10.09961,2.57227c1.41,0 2.77102,-0.16586 4.04102,-0.50586c3.007,-0.805 5.30739,-2.50783 6.65039,-4.92383c3.584,-6.449 -0.62598,-15.70812 -9.58398,-21.07812c-4.26247,-2.55641 -8.98438,-3.73447 -13.13477,-3.39453c-0.65947,-0.69658 -1.57593,-1.09197 -2.53516,-1.09375zM9.16016,23.32422c-7.081,5.471 -10.11811,13.47519 -6.91211,19.24219c1.343,2.416 3.64339,4.11883 6.65039,4.92383c1.271,0.34 2.62902,0.50586 4.04102,0.50586c3.8,0 7.97058,-1.20642 11.76758,-3.48242c4.24784,-2.54671 7.38872,-5.96995 9.16992,-9.55078c1.7511,-0.19075 3.12305,-1.66185 3.12305,-3.46289c0,-1.93 -1.57,-3.5 -3.5,-3.5c-1.93,0 -3.5,1.57 -3.5,3.5c0,0.54022 0.13208,1.04663 0.35156,1.50391c-1.44393,2.97478 -4.13811,5.94148 -7.70117,8.07813c-4.296,2.576 -9.05075,3.52792 -12.71875,2.54492c-1.936,-0.518 -3.3835,-1.55791 -4.1875,-3.00391c-1.934,-3.48 0.00216,-8.69958 4.28516,-12.76758c-0.411,-1.44 -0.70514,-2.95625 -0.86914,-4.53125z"></path></g></g></svg>